<?xml version="1.0" encoding="iso-8859-1"?>
<!-- Generator: Adobe Illustrator 19.0.0, SVG Export Plug-In . SVG Version: 6.00 Build 0)  -->
<svg xmlns="http://www.w3.org/2000/svg" width="19" height="19" style="&#10;    fill: white;&#10;">
                                                                  <path d="M1.365 11.108a1.274 1.274 0 0 0-1.159 1.26c0 .711.596 1.293 1.324 1.293h5.628v5.17c0 .712.596 1.294 1.324 1.294.728 0 1.324-.582 1.324-1.293v-5.17h5.628c.728 0 1.324-.583 1.324-1.294 0-.646-.496-1.195-1.159-1.26L14.11 8.2V2.997h.663c.728 0 1.324-.582 1.324-1.293S15.5.41 14.772.41H2.192C1.464.411.868.993.868 1.704c0 .71.596 1.293 1.324 1.293h.662V8.2l-1.49 2.908zM11.46 2.997V8.49c0 .194.034.388.133.582l1.026 2.004H4.344L5.37 9.072c.1-.194.133-.388.133-.582V2.997h5.958z"/>
                                                                </svg>