<svg width="1.1em" height="1.1em" viewBox="0 0 16 16" fill="white" xmlns="http://www.w3.org/2000/svg">
  <g transform="rotate(90 8 8)">
    <path stroke="white" stroke-width="1" d="M1.5 10.036a.5.5 0 0 1 .5.5v3.5h3.5a.5.5 0 0 1 0 1h-4a.5.5 0 0 1-.5-.5v-4a.5.5 0 0 1 .5-.5z"/>
    <!-- <path d="M6.354 9.646a.5.5 0 0 1 0 .708l-4.5 4.5a.5.5 0 0 1-.708-.708l4.5-4.5z m8.6-8.6a.5.5 0 0 1 0 .708l-4.5 4.5a.5.5 0 0 1-.708-.708l4.5-4.5a.5.5 0 0 1 .708 0z"/> -->
    <path stroke="white" stroke-width="1" d="M10.036 1.5a.5.5 0 0 1 .5-.5h4a.5.5 0 0 1 .5.5v4a.5.5 0 1 1-1 0V2h-3.5a.5.5 0 0 1-.5-.5z"/>
  </g>
  <g>
    <path stroke="white" stroke-width="1" d="M1.5 10.036a.5.5 0 0 1 .5.5v3.5h3.5a.5.5 0 0 1 0 1h-4a.5.5 0 0 1-.5-.5v-4a.5.5 0 0 1 .5-.5z"/>
    <!-- <path d="M6.354 9.646a.5.5 0 0 1 0 .708l-4.5 4.5a.5.5 0 0 1-.708-.708l4.5-4.5z m8.6-8.6a.5.5 0 0 1 0 .708l-4.5 4.5a.5.5 0 0 1-.708-.708l4.5-4.5a.5.5 0 0 1 .708 0z"/> -->
    <path stroke="white" stroke-width="1" d="M10.036 1.5a.5.5 0 0 1 .5-.5h4a.5.5 0 0 1 .5.5v4a.5.5 0 1 1-1 0V2h-3.5a.5.5 0 0 1-.5-.5z"/>
  </g>
</svg>