<svg width="1.1em" height="1.1em" viewBox="0 0 16 16" fill="white" xmlns="http://www.w3.org/2000/svg">
  <g transform="translate(9.5,-9.5)">
    <path stroke="white" stroke-width="1" d="M1.5 10.036a.5.5 0 0 1 .5.5v3.5h3.5a.5.5 0 0 1 0 1h-4a.5.5 0 0 1-.5-.5v-4a.5.5 0 0 1 .5-.5z"/>
  </g>
  <g transform="translate(-1.5,-9.5) rotate(-90 4 12)">
    <path stroke="white" stroke-width="1" d="M1.5 10.036a.5.5 0 0 1 .5.5v3.5h3.5a.5.5 0 0 1 0 1h-4a.5.5 0 0 1-.5-.5v-4a.5.5 0 0 1 .5-.5z"/>
  </g>
  <g transform="translate(-1.5,1.5) rotate(-180 4 12)">
    <path stroke="white" stroke-width="1" d="M1.5 10.036a.5.5 0 0 1 .5.5v3.5h3.5a.5.5 0 0 1 0 1h-4a.5.5 0 0 1-.5-.5v-4a.5.5 0 0 1 .5-.5z"/>
  </g>
  <g transform="translate(9.5,1.5) rotate(-270 4 12)">
    <path stroke="white" stroke-width="1" d="M1.5 10.036a.5.5 0 0 1 .5.5v3.5h3.5a.5.5 0 0 1 0 1h-4a.5.5 0 0 1-.5-.5v-4a.5.5 0 0 1 .5-.5z"/>
  </g>
</svg>