<svg xmlns="http://www.w3.org/2000/svg" fill="#295f8e" width="19" height="19">
    <path
        d="M18 9.474a2.015 2.015 0 0 0-.937-1.711c.62-.402.949-1.057.937-1.711a2.011 2.011 0 0 0-.984-1.746L10.774.494h-.012A3.33 3.33 0 0 0 9.005 0c-.608 0-1.23.16-1.768.494L.995 4.306a2 2 0 0 0-.984 1.746 2.004 2.004 0 0 0 .937 1.71A2.055 2.055 0 0 0 0 9.475c0 .654.328 1.309.948 1.71a2.043 2.043 0 0 0-.937 1.712c0 .666.34 1.355.996 1.757l6.254 3.8a3.331 3.331 0 0 0 1.756.494c.61 0 1.218-.16 1.757-.493l6.23-3.801A2.07 2.07 0 0 0 18 12.896c0-.643-.316-1.298-.937-1.711.62-.402.949-1.057.937-1.711zm-1.921 3.72l-6.23 3.801a1.614 1.614 0 0 1-1.663 0l-6.254-3.8c-.117-.081-.164-.173-.164-.3 0-.126.047-.218.164-.286l.668-.402 4.649 2.824a3.436 3.436 0 0 0 1.756.494c.61 0 1.218-.172 1.757-.494l4.65-2.824.667.402a.315.315 0 0 1 .164.287c0 .126-.047.218-.164.298zm0-3.422l-1.124.69-5.118 3.111c-.258.15-.539.23-.832.23a1.64 1.64 0 0 1-.831-.23l-5.118-3.112-1.124-.689c-.129-.08-.164-.172-.175-.298.011-.115.046-.219.175-.287l.656-.402 4.66 2.824c.54.333 1.149.494 1.757.494.61 0 1.218-.16 1.757-.482l4.661-2.837.656.402a.315.315 0 0 1 .164.287c0 .127-.047.219-.164.3zm0-3.422l-1.147.7c-.012.012-.024.012-.036.024L9.837 10.15a1.54 1.54 0 0 1-.832.23 1.51 1.51 0 0 1-.831-.23l-5.06-3.077c-.01-.012-.023-.012-.034-.023l-1.148-.7a.37.37 0 0 1-.175-.3.35.35 0 0 1 .175-.286l6.242-3.813c.258-.15.539-.23.831-.23.293 0 .575.08.832.23l6.242 3.813a.315.315 0 0 1 .164.287.32.32 0 0 1-.164.298z">
    </path>
</svg>